REM DIRINDEX 1\2,1\3
REM DIRNAME folder01,folder02,folder03
TITLE ""
FILE "1701-1720.mp3" MP3
  TRACK 01 AUDIO
    TITLE "0:"
    INDEX 01 00:00:00
  TRACK 02 AUDIO
    TITLE "2:cjc039_2401"
    INDEX 01 00:00:25
  TRACK 03 AUDIO
    TITLE "0:"
    INDEX 01 00:01:24
  TRACK 04 AUDIO
    TITLE "3:cjc039_2402"
    INDEX 01 00:02:02
  TRACK 05 AUDIO
    TITLE "0:"
    INDEX 01 00:05:46
  TRACK 06 AUDIO
    TITLE "2:cjc039_2403"
    INDEX 01 00:07:25
  TRACK 07 AUDIO
    TITLE "0:"
    INDEX 01 00:08:58
  TRACK 08 AUDIO
    TITLE "3:cjc039_2404"
    INDEX 01 00:09:24
  TRACK 09 AUDIO
    TITLE "0:"
    INDEX 01 00:13:28
  TRACK 10 AUDIO
    TITLE "2:cjc039_2405"
    INDEX 01 00:15:03
  TRACK 11 AUDIO
    TITLE "0:"
    INDEX 01 00:16:14
  TRACK 12 AUDIO
    TITLE "3:cjc039_2406"
    INDEX 01 00:16:67
  TRACK 13 AUDIO
    TITLE "0:"
    INDEX 01 00:20:22
  TRACK 14 AUDIO
    TITLE "2:cjc039_2407"
    INDEX 01 00:21:72
  TRACK 15 AUDIO
    TITLE "0:"
    INDEX 01 00:23:16
  TRACK 16 AUDIO
    TITLE "3:cjc039_2408"
    INDEX 01 00:23:63
  TRACK 17 AUDIO
    TITLE "0:"
    INDEX 01 00:28:08
  TRACK 18 AUDIO
    TITLE "2:cjc039_2409"
    INDEX 01 00:29:64
  TRACK 19 AUDIO
    TITLE "0:"
    INDEX 01 00:31:02
  TRACK 20 AUDIO
    TITLE "3:cjc039_2410"
    INDEX 01 00:31:49
  TRACK 21 AUDIO
    TITLE "0:"
    INDEX 01 00:36:19
  TRACK 22 AUDIO
    TITLE "2:cjc039_2411"
    INDEX 01 00:37:71
  TRACK 23 AUDIO
    TITLE "0:"
    INDEX 01 00:39:11
  TRACK 24 AUDIO
    TITLE "3:cjc039_2412"
    INDEX 01 00:39:62
  TRACK 25 AUDIO
    TITLE "0:"
    INDEX 01 00:43:52
  TRACK 26 AUDIO
    TITLE "2:cjc039_2413"
    INDEX 01 00:45:32
  TRACK 27 AUDIO
    TITLE "0:"
    INDEX 01 00:46:41
  TRACK 28 AUDIO
    TITLE "3:cjc039_2414"
    INDEX 01 00:47:23
  TRACK 29 AUDIO
    TITLE "0:"
    INDEX 01 00:50:64
  TRACK 30 AUDIO
    TITLE "2:cjc039_2415"
    INDEX 01 00:52:39
  TRACK 31 AUDIO
    TITLE "0:"
    INDEX 01 00:53:62
  TRACK 32 AUDIO
    TITLE "3:cjc039_2416"
    INDEX 01 00:54:40
  TRACK 33 AUDIO
    TITLE "0:"
    INDEX 01 00:57:68
  TRACK 34 AUDIO
    TITLE "2:cjc039_2417"
    INDEX 01 00:59:45
  TRACK 35 AUDIO
    TITLE "0:"
    INDEX 01 01:00:43
  TRACK 36 AUDIO
    TITLE "3:cjc039_2418"
    INDEX 01 01:01:17
  TRACK 37 AUDIO
    TITLE "0:"
    INDEX 01 01:04:31
  TRACK 38 AUDIO
    TITLE "2:cjc039_2419"
    INDEX 01 01:06:06
  TRACK 39 AUDIO
    TITLE "0:"
    INDEX 01 01:07:37
  TRACK 40 AUDIO
    TITLE "3:cjc039_2420"
    INDEX 01 01:08:15
  TRACK 41 AUDIO
    TITLE "0:"
    INDEX 01 01:12:44
  TRACK 42 AUDIO
    TITLE "2:cjc039_2421"
    INDEX 01 01:14:21
  TRACK 43 AUDIO
    TITLE "0:"
    INDEX 01 01:15:35
  TRACK 44 AUDIO
    TITLE "3:cjc039_2422"
    INDEX 01 01:16:16
  TRACK 45 AUDIO
    TITLE "0:"
    INDEX 01 01:19:62
  TRACK 46 AUDIO
    TITLE "2:cjc039_2423"
    INDEX 01 01:21:37
  TRACK 47 AUDIO
    TITLE "0:"
    INDEX 01 01:22:56
  TRACK 48 AUDIO
    TITLE "3:cjc039_2424"
    INDEX 01 01:23:34
  TRACK 49 AUDIO
    TITLE "0:"
    INDEX 01 01:28:10
  TRACK 50 AUDIO
    TITLE "2:cjc039_2425"
    INDEX 01 01:29:60
  TRACK 51 AUDIO
    TITLE "0:"
    INDEX 01 01:30:71
  TRACK 52 AUDIO
    TITLE "3:cjc039_2426"
    INDEX 01 01:31:49
  TRACK 53 AUDIO
    TITLE "0:"
    INDEX 01 01:34:46
  TRACK 54 AUDIO
    TITLE "2:cjc039_2427"
    INDEX 01 01:36:19
  TRACK 55 AUDIO
    TITLE "0:"
    INDEX 01 01:37:58
  TRACK 56 AUDIO
    TITLE "3:cjc039_2428"
    INDEX 01 01:38:38
  TRACK 57 AUDIO
    TITLE "0:"
    INDEX 01 01:42:67
  TRACK 58 AUDIO
    TITLE "2:cjc039_2429"
    INDEX 01 01:44:44
  TRACK 59 AUDIO
    TITLE "0:"
    INDEX 01 01:45:55
  TRACK 60 AUDIO
    TITLE "3:cjc039_2430"
    INDEX 01 01:46:37
  TRACK 61 AUDIO
    TITLE "0:"
    INDEX 01 01:51:25
  TRACK 62 AUDIO
    TITLE "2:cjc039_2431"
    INDEX 01 01:53:00
  TRACK 63 AUDIO
    TITLE "0:"
    INDEX 01 01:54:46
  TRACK 64 AUDIO
    TITLE "3:cjc039_2432"
    INDEX 01 01:55:24
  TRACK 65 AUDIO
    TITLE "0:"
    INDEX 01 01:59:67
  TRACK 66 AUDIO
    TITLE "2:cjc039_2433"
    INDEX 01 02:01:45
  TRACK 67 AUDIO
    TITLE "0:"
    INDEX 01 02:02:67
  TRACK 68 AUDIO
    TITLE "3:cjc039_2434"
    INDEX 01 02:03:47
  TRACK 69 AUDIO
    TITLE "0:"
    INDEX 01 02:07:59
  TRACK 70 AUDIO
    TITLE "2:cjc039_2435"
    INDEX 01 02:09:32
  TRACK 71 AUDIO
    TITLE "0:"
    INDEX 01 02:10:47
  TRACK 72 AUDIO
    TITLE "3:cjc039_2436"
    INDEX 01 02:11:25
  TRACK 73 AUDIO
    TITLE "0:"
    INDEX 01 02:15:37
  TRACK 74 AUDIO
    TITLE "2:cjc039_2437"
    INDEX 01 02:17:16
  TRACK 75 AUDIO
    TITLE "0:"
    INDEX 01 02:18:08
  TRACK 76 AUDIO
    TITLE "3:cjc039_2438"
    INDEX 01 02:18:63
  TRACK 77 AUDIO
    TITLE "0:"
    INDEX 01 02:22:62
  TRACK 78 AUDIO
    TITLE "2:cjc039_2439"
    INDEX 01 02:24:42
  TRACK 79 AUDIO
    TITLE "0:"
    INDEX 01 02:25:61
  TRACK 80 AUDIO
    TITLE "3:cjc039_2440"
    INDEX 01 02:26:41
  TRACK 81 AUDIO
    TITLE "0:"
    INDEX 01 02:31:06
